<svg width="24" height="24" viewBox="0 0 24 24" fill="none" xmlns="http://www.w3.org/2000/svg">
  <path
    d="M12 2C6.48 2 2 6.6 2 12.28C2 16.8 4.87 20.62 8.84 21.98C9.34 22.07 9.5 21.75 9.5 21.47C9.5 21.23 9.49 20.47 9.49 19.62C6.72 20.24 6.14 18.41 6.14 18.41C5.68 17.23 5.01 16.92 5.01 16.92C4.08 16.28 5.08 16.29 5.08 16.29C6.11 16.37 6.65 17.38 6.65 17.38C7.56 18.98 9.04 18.52 9.62 18.25C9.71 17.57 9.97 17.11 10.26 16.85C8.05 16.59 5.72 15.7 5.72 11.76C5.72 10.64 6.1 9.73 6.73 9.02C6.63 8.76 6.29 7.7 6.83 6.27C6.83 6.27 7.66 5.99 9.49 7.3C10.29 7.07 11.15 6.96 12 6.96C12.85 6.96 13.71 7.07 14.51 7.3C16.34 5.99 17.17 6.27 17.17 6.27C17.71 7.7 17.37 8.76 17.27 9.02C17.9 9.73 18.28 10.64 18.28 11.76C18.28 15.71 15.94 16.58 13.72 16.84C14.09 17.18 14.42 17.87 14.42 18.93C14.42 20.45 14.41 21.68 14.41 21.47C14.41 21.75 14.58 22.07 15.08 21.98C19.14 20.6 22 16.79 22 12.28C22 6.6 17.52 2 12 2Z"
    fill="currentColor"
  />
</svg>
